<svg t="1570110823880" class="icon" viewBox="0 0 1028 1024" version="1.1" xmlns="http://www.w3.org/2000/svg" p-id="933" width="200" height="200"><path d="M429.470647 792.415147a25.646163 25.646163 0 0 1-18.875576-8.206772l-288.980966-308.26688a25.646163 25.646163 0 1 1 37.751152-35.391705L448.346223 748.867962a25.646163 25.646163 0 0 1-1.179723 36.571429 25.646163 25.646163 0 0 1-17.695853 6.975756z" fill="#1296db" p-id="934"></path><path d="M755.997596 96.070527a270.618313 270.618313 0 0 0-186.960529 74.732919 22.517331 22.517331 0 1 0 30.313764 33.186135 226.609497 226.609497 0 0 1 320.37187 320.37187l-405.773593 406.235223-405.978761-406.183931a226.558205 226.558205 0 0 1 319.140853-321.500301l135.411741 135.257865a22.414747 22.414747 0 0 0 31.647366-31.698658L460.092166 172.290924a271.849329 271.849329 0 0 0-384.076939 384.076938l437.831297 437.67742 437.882588-437.985174a271.849329 271.849329 0 0 0-195.834101-459.886996" p-id="935" fill="#1296db"></path></svg>